<?xml version="1.0" encoding="UTF-8"?>
<svg version="1.1" xmlns="http://www.w3.org/2000/svg" width="394" height="176">
<path d="M0 0 C0 0.66 0 1.32 0 2 C0.721875 2.2475 1.44375 2.495 2.1875 2.75 C5.28674178 4.12744079 7.37144783 5.86048079 10 8 C11.37194078 8.77626512 12.7471605 9.54675373 14.125 10.3125 C18.41363208 12.95228301 19.77803734 15.11214936 21 20 C20.18409912 23.58996386 18.75780038 25.63071191 16 28 C13.94140625 28.84375 13.94140625 28.84375 11.5625 29.5 C10.67820313 29.74492188 9.79390625 29.98984375 8.8828125 30.2421875 C7.93148437 30.49226563 6.98015625 30.74234375 6 31 C5.00742188 31.27070312 4.01484375 31.54140625 2.9921875 31.8203125 C-11.89599237 35.74226269 -11.89599237 35.74226269 -17.875 34.3125 C-20.46254553 32.71431011 -21.62927568 31.74144864 -23 29 C-23.51513791 23.59105196 -23.41328621 20.42463028 -20 16 C-19.52175781 15.57332031 -19.04351562 15.14664063 -18.55078125 14.70703125 C-16.54895516 12.50350984 -15.6490189 10.23996816 -14.5 7.5 C-11.3653088 0.02496715 -11.3653088 0.02496715 -7.125 -1.8125 C-4.3218386 -2.05983777 -2.51276138 -1.18658176 0 0 Z " fill="#B3AF54" transform="translate(62,91)"/>
<path d="M0 0 C3.3 0 6.6 0 10 0 C10.04898438 0.81984375 10.09796875 1.6396875 10.1484375 2.484375 C10.22320312 3.56203125 10.29796875 4.6396875 10.375 5.75 C10.44460937 6.81734375 10.51421875 7.8846875 10.5859375 8.984375 C10.9728223 11.80206432 11.55686166 13.5830366 13 16 C14.10514766 12.68455701 14.32107631 9.79589889 14.5625 6.3125 C14.64628906 5.13300781 14.73007813 3.95351562 14.81640625 2.73828125 C14.87699219 1.83464844 14.93757812 0.93101563 15 0 C18.63 0 22.26 0 26 0 C25.93489583 2.734375 25.86979167 5.46875 25.8046875 8.203125 C26.00137219 11.0196498 26.55431084 12.60949036 28 15 C29.41634833 12.16730334 29.3463005 9.52533562 29.5625 6.375 C29.64628906 5.18648438 29.73007813 3.99796875 29.81640625 2.7734375 C29.90728516 1.40058594 29.90728516 1.40058594 30 0 C33.63 0 37.26 0 41 0 C42.40997624 12.06313003 37.51320176 20.63179196 32 31 C30.54360172 31.06750398 29.08631223 31.11599414 27.62890625 31.15625 C26.81752197 31.18525391 26.0061377 31.21425781 25.17016602 31.24414062 C23 31 23 31 20.9375 28.5 C20.4734375 27.2625 20.4734375 27.2625 20 26 C19.67 26.825 19.34 27.65 19 28.5 C17 31 17 31 15.0546875 31.24414062 C12.02734375 31.12207031 12.02734375 31.12207031 9 31 C2.55589382 20.43882598 -1.62754486 12.6787754 0 0 Z " fill="#B3AF54" transform="translate(181,80)"/>
<path d="M0 0 C4.22104118 2.1594602 7.97338261 4.59792124 10 9 C10.81587495 14.52825612 11.34650494 20.71500412 8.25 25.625 C3.67851657 30.45045473 0.81643169 31.76529736 -5.75 32.3125 C-10.50557405 32.2237766 -14.18719149 30.83430013 -18 28 C-22.03122055 23.06175482 -22.64269621 18.90977455 -22.3828125 12.5859375 C-21.63682504 7.54671608 -19.06833823 5.01492132 -15.5 1.625 C-10.43780554 -0.72530457 -5.49675939 -0.82118478 0 0 Z M-10.3125 11.125 C-12.26364613 13.89356508 -12.26364613 13.89356508 -12 17.125 C-11.18856648 20.03653828 -11.18856648 20.03653828 -9.25 22 C-6.98370279 23.28764946 -6.98370279 23.28764946 -4.375 22.3125 C-1.90720055 21.09178154 -1.90720055 21.09178154 0 19 C0.47892926 15.32820897 0.47427613 13.64366046 -1.75 10.625 C-5.21233479 8.12442487 -7.19104841 8.25663908 -10.3125 11.125 Z " fill="#444321" transform="translate(323,79)"/>
<path d="M0 0 C3.63 0 7.26 0 11 0 C10.67 3.63 10.34 7.26 10 11 C13.3 11 16.6 11 20 11 C20 7.37 20 3.74 20 0 C23.3 0 26.6 0 30 0 C30 10.23 30 20.46 30 31 C26.37 31 22.74 31 19 31 C18.92670204 26.60212211 18.92603934 23.29584263 20 19 C16.7 19 13.4 19 10 19 C10.08378906 19.78246094 10.16757812 20.56492187 10.25390625 21.37109375 C10.35574219 22.38300781 10.45757812 23.39492187 10.5625 24.4375 C10.66691406 25.44683594 10.77132813 26.45617187 10.87890625 27.49609375 C10.91886719 28.32238281 10.95882813 29.14867188 11 30 C10.67 30.33 10.34 30.66 10 31 C6.7 31 3.4 31 0 31 C0 20.77 0 10.54 0 0 Z " fill="#444321" transform="translate(260,80)"/>
<path d="M0 0 C3.34125 -0.0825 6.6825 -0.165 10.125 -0.25 C11.16672363 -0.28641602 12.20844727 -0.32283203 13.28173828 -0.36035156 C19.18230039 -0.43071795 22.52806305 0.04123614 27 4 C28.96276475 7.9255295 28.34092987 12.71048231 28 17 C26.70220492 20.3469452 25.85496141 21.48702315 22.8125 23.3125 C19.09935111 24.22015862 15.81964945 24.12947964 12 24 C12 26.31 12 28.62 12 31 C8.37 31 4.74 31 1 31 C0.67 20.77 0.34 10.54 0 0 Z M11 8 C11 10.64 11 13.28 11 16 C12.98 15.67 14.96 15.34 17 15 C17.69159401 13.15274948 17.69159401 13.15274948 18 11 C17.34 10.01 16.68 9.02 16 8 C13.41619823 7.74969023 13.41619823 7.74969023 11 8 Z " fill="#444321" transform="translate(343,80)"/>
<path d="M0 0 C3.34125 -0.0825 6.6825 -0.165 10.125 -0.25 C11.16672363 -0.28641602 12.20844727 -0.32283203 13.28173828 -0.36035156 C19.18230039 -0.43071795 22.52806305 0.04123614 27 4 C28.96276475 7.9255295 28.34092987 12.71048231 28 17 C26.70220492 20.3469452 25.85496141 21.48702315 22.8125 23.3125 C19.09935111 24.22015862 15.81964945 24.12947964 12 24 C12 26.31 12 28.62 12 31 C8.37 31 4.74 31 1 31 C0.67 20.77 0.34 10.54 0 0 Z M11 8 C11 10.64 11 13.28 11 16 C12.98 15.67 14.96 15.34 17 15 C17.69159401 13.15274948 17.69159401 13.15274948 18 11 C17.34 10.01 16.68 9.02 16 8 C13.41619823 7.74969023 13.41619823 7.74969023 11 8 Z " fill="#B3AF54" transform="translate(103,80)"/>
<path d="M0 0 C3.63 0 7.26 0 11 0 C12.5731138 3.93012208 14.13949833 7.86283832 15.69970703 11.7980957 C16.23139321 13.13639426 16.76491007 14.47396703 17.30029297 15.81079102 C18.06961 17.73265629 18.83230154 19.65703716 19.59375 21.58203125 C20.05458984 22.73936768 20.51542969 23.8967041 20.99023438 25.08911133 C22 28 22 28 22 31 C18.37 31 14.74 31 11 31 C10.67 29.68 10.34 28.36 10 27 C7.03 27 4.06 27 1 27 C0.67 28.32 0.34 29.64 0 31 C-3.3 31 -6.6 31 -10 31 C-9.4532325 24.07096458 -6.93348067 18.00312392 -4.4375 11.5625 C-4.01275391 10.44939453 -3.58800781 9.33628906 -3.15039062 8.18945312 C-2.10672412 5.45715768 -1.05423591 2.72823475 0 0 Z M5 14 C4.67 15.65 4.34 17.3 4 19 C4.99 19 5.98 19 7 19 C6.67 17.35 6.34 15.7 6 14 C5.67 14 5.34 14 5 14 Z " fill="#B3AF54" transform="translate(150,80)"/>
<path d="M0 0 C2.31141604 2.85074644 3 4.3139451 3 8 C1.35 8.33 -0.3 8.66 -2 9 C-0.38731308 11.71224618 1.24901874 14.37352812 3 17 C3.78651685 23.96629213 3.78651685 23.96629213 0.8125 27.875 C-2.76678833 30.57935118 -5.14444114 32.08630506 -9.6875 31.875 C-12 31 -12 31 -13.3125 29.1875 C-14 27 -14 27 -14 23 C-12.35 22.34 -10.7 21.68 -9 21 C-10.07401108 18.08482708 -10.77810176 16.22189824 -13 14 C-13.56025442 10.94513908 -13.54916387 8.05574353 -13 5 C-9.08076713 0.87449172 -5.67747106 -0.69520054 0 0 Z " fill="#444321" transform="translate(245,79)"/>
<path d="M0 0 C3.77603629 0.82888601 5.15414984 2.58375112 7.5625 5.5625 C9.90374379 10.00278995 11.23329786 13.53151605 10.5625 18.5625 C9.5 20.9375 9.5 20.9375 7.5625 22.5625 C4.25 23.25 4.25 23.25 0.5625 22.5625 C-2.81778052 19.73179738 -5.04494218 16.74017346 -6.4375 12.5625 C-7.00562204 5.40416228 -7.00562204 5.40416228 -4.75 2.0625 C-2.4375 0.5625 -2.4375 0.5625 0 0 Z " fill="#B3AF54" transform="translate(42.4375,69.4375)"/>
<path d="M0 0 C4.71274531 1.7639387 7.14074914 6.12335308 9.50390625 10.3359375 C10.24695634 13.55582121 10.11242218 15.63538971 9.06640625 18.7734375 C6.94140625 20.3359375 6.94140625 20.3359375 4.06640625 20.7734375 C-1.60720882 19.15240462 -4.71656256 16.88283998 -7.93359375 11.7734375 C-8.76981599 8.7537461 -9.31445048 5.89765288 -8.93359375 2.7734375 C-6.45399992 -0.68878175 -4.14268774 -0.68663333 0 0 Z " fill="#B3AF54" transform="translate(32.93359375,85.2265625)"/>
<path d="M0 0 C3.15770891 3.27048422 3.9368897 6.24267645 4.3125 10.75 C4.22368227 15.55503914 3.00069438 18.22989681 0 22 C-3.5625 23.125 -3.5625 23.125 -7 23 C-9.13315889 21.64899937 -9.74768765 20.61931214 -10.6875 18.3125 C-11.67816488 10.98157988 -11.2066207 7.06248278 -7 1 C-4.4254716 -0.2872642 -2.85291355 -0.34791629 0 0 Z " fill="#B3AF54" transform="translate(65,65)"/>
<path d="M0 0 C3.5 0.125 3.5 0.125 7 1 C9.7234558 5.04526334 9.53832949 9.30185173 9 14 C7.62623038 17.53255046 6.17722555 20.80038231 3 23 C-0.16111629 23.56737985 -1.54812231 23.26868403 -4.3125 21.625 C-6.93085201 17.55200799 -6.7371304 13.70462635 -6 9 C-4.61576387 5.46178895 -2.69732374 2.69732374 0 0 Z " fill="#B3AF54" transform="translate(76,74)"/>
</svg>
